<?xml version="1.0" encoding="utf-8"?>
<!-- Generator: Adobe Illustrator 16.0.0, SVG Export Plug-In . SVG Version: 6.00 Build 0)  -->
<!DOCTYPE svg PUBLIC "-//W3C//DTD SVG 1.1//EN" "http://www.w3.org/Graphics/SVG/1.1/DTD/svg11.dtd">
<svg version="1.1" xmlns="http://www.w3.org/2000/svg" xmlns:xlink="http://www.w3.org/1999/xlink" x="0px" y="0px"
	 width="801.955px" height="669.576px" viewBox="0 0 801.955 669.576" enable-background="new 0 0 801.955 669.576"
	 xml:space="preserve">
<g id="Capa_1">
	<g>
		<path fill="#AA00FF" d="M459.919,548.544c-13.965-6.307-27.391-12.478-39.998-18.323
			c-131.14-63.843-212.686-141.351-244.093-170.34l0.75,1.033C109.949,298.6,49.942,232.778,54.161,197.651
			c8.389-69.923,118.871-46.151,118.871-46.151c-79.473-45.415-350.06-56.66,7.226,243.339
			C283.361,487.774,434.919,566.9,565.874,620.318c344.189,145.586,230.587-73.001,160.278-123.477c0,0,67.567,90.584,7.477,127.302
			c-36.011,21.993-149.717-20.921-247.712-64.018"/>
		<path fill="#AA00FF" d="M192.611,327.713C140.519,405.33,31.784,629.788,468.116,499.732
			C468.116,499.732,65.521,616.154,192.611,327.713z"/>
		<path fill="#AA00FF" d="M679.838,318.476c52.099-77.617,160.827-302.079-275.502-172.015
			C404.336,146.46,806.932,30.034,679.838,318.476z"/>
		<path fill="#AA00FF" d="M336.97,107.503c50.111-78.923,211.887-268.745,268.302,183.048
			C605.271,290.551,549.938-124.873,336.97,107.503z"/>
		<path fill="#AA00FF" d="M544.316,560.645c-50.111,78.925-211.88,268.75-268.305-183.051
			C276.011,377.594,331.345,793.015,544.316,560.645z"/>
	</g>
</g>
<g id="Capa_2">
	<g>
		<path fill="#F2B92C" d="M476.666,428.943c0.03-65.038,53.014-117.984,118.023-117.943c65.057,0.042,118.087,52.997,117.91,118.024
			c-0.18,65.39-52.624,117.798-117.991,117.909C529.566,547.045,476.636,493.96,476.666,428.943z M626.503,415.659
			c0.558-0.043,0.78-0.444,1.068-0.73c5.567-5.558,11.115-11.138,16.71-16.668c0.783-0.772,0.822-1.193,0.021-1.996
			c-16.264-16.215-32.501-32.456-48.719-48.715c-0.708-0.711-1.073-0.8-1.841-0.03c-16.212,16.264-32.448,32.505-48.719,48.711
			c-0.933,0.928-0.659,1.35,0.104,2.104c5.479,5.424,10.95,10.854,16.336,16.366c1.048,1.07,1.54,0.859,2.467-0.074
			c9.816-9.879,19.695-19.697,29.504-29.585c0.983-0.992,1.444-1.002,2.432-0.004c9.844,9.928,19.746,19.797,29.635,29.681
			C625.833,415.052,626.189,415.365,626.503,415.659z M562.563,442.297c-0.324,0.298-0.684,0.608-1.018,0.941
			c-5.458,5.438-10.889,10.906-16.392,16.297c-0.961,0.941-0.92,1.415,0.013,2.343c16.188,16.127,32.346,32.283,48.469,48.475
			c0.901,0.907,1.286,0.733,2.073-0.056c16.134-16.18,32.289-32.339,48.47-48.471c0.861-0.859,0.956-1.322,0.031-2.231
			c-5.537-5.434-11.027-10.917-16.471-16.443c-0.914-0.929-1.385-0.804-2.229,0.048c-9.892,9.947-19.84,19.84-29.716,29.801
			c-0.967,0.976-1.41,0.875-2.316-0.038c-9.849-9.915-19.744-19.783-29.635-29.658C563.477,442.939,563.189,442.459,562.563,442.297
			z M613.491,428.983c-0.239-0.262-0.405-0.46-0.588-0.643c-5.86-5.865-11.732-11.721-17.575-17.604
			c-0.566-0.57-0.867-0.485-1.387,0.037c-5.809,5.843-11.635,11.667-17.476,17.479c-0.493,0.492-0.674,0.786-0.074,1.38
			c5.886,5.84,11.749,11.705,17.591,17.589c0.567,0.57,0.864,0.49,1.385-0.033c5.808-5.843,11.641-11.661,17.465-17.489
			C613.049,429.484,613.247,429.25,613.491,428.983z M549.451,428.979c-0.265-0.296-0.463-0.536-0.682-0.753
			c-5.709-5.712-11.429-11.413-17.113-17.147c-0.623-0.628-0.941-0.519-1.502,0.045c-5.691,5.729-11.398,11.442-17.135,17.127
			c-0.621,0.616-0.539,0.928,0.03,1.495c5.729,5.691,11.442,11.399,17.129,17.132c0.6,0.604,0.925,0.566,1.503-0.017
			c5.689-5.73,11.407-11.432,17.116-17.144C549.014,429.5,549.204,429.259,549.451,428.979z M658.392,447.54
			c0.277-0.257,0.513-0.461,0.731-0.681c5.712-5.709,11.412-11.43,17.147-17.117c0.604-0.598,0.584-0.91-0.008-1.496
			c-5.732-5.689-11.442-11.4-17.133-17.131c-0.576-0.58-0.893-0.624-1.497-0.016c-5.686,5.736-11.397,11.445-17.13,17.134
			c-0.595,0.592-0.599,0.926-0.001,1.517c5.729,5.69,11.434,11.409,17.145,17.118C657.863,447.085,658.102,447.281,658.392,447.54z"
			/>
		<path fill="#FEFEFD" d="M626.503,415.659c-0.313-0.293-0.67-0.606-1.003-0.94c-9.889-9.884-19.791-19.753-29.635-29.681
			c-0.987-0.998-1.448-0.988-2.432,0.004c-9.809,9.888-19.688,19.706-29.504,29.585c-0.927,0.934-1.419,1.145-2.467,0.074
			c-5.386-5.513-10.857-10.942-16.336-16.366c-0.763-0.755-1.036-1.176-0.104-2.104c16.271-16.206,32.507-32.447,48.719-48.711
			c0.768-0.77,1.133-0.681,1.841,0.03c16.218,16.259,32.457,32.5,48.719,48.715c0.803,0.802,0.763,1.223-0.021,1.996
			c-5.595,5.53-11.143,11.111-16.71,16.668C627.283,415.215,627.061,415.616,626.503,415.659z"/>
		<path fill="#FEFEFD" d="M562.563,442.297c0.626,0.162,0.913,0.642,1.279,1.009c9.89,9.875,19.786,19.743,29.634,29.658
			c0.907,0.913,1.349,1.014,2.317,0.038c9.876-9.961,19.824-19.854,29.714-29.801c0.847-0.852,1.317-0.977,2.231-0.048
			c5.442,5.527,10.934,11.009,16.47,16.443c0.926,0.909,0.831,1.372-0.03,2.231c-16.181,16.132-32.336,32.291-48.47,48.471
			c-0.787,0.789-1.172,0.962-2.073,0.056c-16.123-16.192-32.281-32.348-48.469-48.475c-0.933-0.928-0.974-1.401-0.013-2.343
			c5.503-5.391,10.934-10.858,16.392-16.297C561.88,442.905,562.239,442.596,562.563,442.297z"/>
		<path fill="#FEFEFD" d="M613.491,428.983c-0.244,0.267-0.442,0.501-0.659,0.717c-5.824,5.828-11.657,11.646-17.465,17.489
			c-0.521,0.523-0.817,0.604-1.385,0.033c-5.841-5.884-11.704-11.749-17.591-17.589c-0.6-0.595-0.419-0.888,0.074-1.38
			c5.841-5.813,11.667-11.637,17.476-17.479c0.52-0.522,0.82-0.607,1.387-0.037c5.842,5.884,11.715,11.739,17.575,17.604
			C613.086,428.522,613.252,428.72,613.491,428.983z"/>
		<path fill="#FEFEFD" d="M549.451,428.979c-0.247,0.28-0.438,0.521-0.653,0.737c-5.709,5.712-11.427,11.414-17.116,17.144
			c-0.578,0.582-0.903,0.62-1.503,0.016c-5.687-5.732-11.399-11.441-17.129-17.131c-0.569-0.567-0.651-0.879-0.03-1.495
			c5.736-5.685,11.443-11.398,17.135-17.127c0.559-0.563,0.879-0.673,1.502-0.045c5.685,5.735,11.404,11.435,17.113,17.147
			C548.988,428.443,549.187,428.683,549.451,428.979z"/>
		<path fill="#FEFEFD" d="M658.392,447.54c-0.29-0.259-0.528-0.456-0.745-0.672c-5.713-5.708-11.415-11.428-17.145-17.118
			c-0.598-0.59-0.596-0.924,0.001-1.517c5.732-5.689,11.444-11.398,17.13-17.134c0.604-0.608,0.921-0.564,1.497,0.016
			c5.69,5.731,11.398,11.442,17.133,17.131c0.592,0.586,0.609,0.898,0.008,1.496c-5.735,5.687-11.436,11.408-17.147,17.117
			C658.904,447.079,658.669,447.283,658.392,447.54z"/>
	</g>
	<g>
		<circle fill="#F0B90B" cx="286" cy="233.015" r="117.215"/>
		<path fill="#FFFFFF" d="M236.114,203.242l49.935-49.935l19.909,19.911l-49.933,49.933L236.114,203.242z M236.151,262.911
			l79.798-79.799l19.912,19.911l-79.801,79.798L236.151,262.911z M345.796,213.015l-79.8,79.799l19.909,19.908l79.802-79.799
			L345.796,213.015z M206.293,233.057l19.911-19.909l19.909,19.909l-19.909,19.911L206.293,233.057z"/>
	</g>
</g>
</svg>
