<?xml version="1.0" encoding="utf-8"?>
<!-- Generator: Adobe Illustrator 16.0.0, SVG Export Plug-In . SVG Version: 6.00 Build 0)  -->
<!DOCTYPE svg PUBLIC "-//W3C//DTD SVG 1.1//EN" "http://www.w3.org/Graphics/SVG/1.1/DTD/svg11.dtd">
<svg version="1.1" id="Capa_1" xmlns="http://www.w3.org/2000/svg" xmlns:xlink="http://www.w3.org/1999/xlink" x="0px" y="0px"
	 width="801.955px" height="669.576px" viewBox="0 0 801.955 669.576" enable-background="new 0 0 801.955 669.576"
	 xml:space="preserve">
<g>
	<path fill="#25C6D5" d="M293.604,350.151c-6.116,0-12.232,0-18.348,0c-2.858-1.107-5.928-0.95-8.883-1.478
		c-33.178-5.934-59.369-22.766-78.5-50.481c-5.345-7.745-9.71-16.053-12.647-25.048c0.371-0.257,0.726-0.711,1.114-0.741
		c2.653-0.203,5.396,0.377,7.912-1.01c0.168-0.093,0.591,0.133,0.817,0.311c1.46,1.146,3.134,0.88,4.813,0.867
		c2.789-0.022,5.628-0.416,8.343-0.148c3.143,0.31,6.216,0.606,9.342,0.145c2.011,3.064,4.059,6.094,6.584,8.776
		c9.431,10.011,21.204,16.105,34.117,20.166c19.603,6.164,39.606,7.192,59.755,3.529c19.881-3.614,37.965-10.966,51.43-26.968
		c2.237,0.407,4.688-0.391,6.718,1.267c0.424,0.347,0.989-0.066,1.494-0.249c1.405-0.508,3.188-1.675,4.192-1.213
		c1.765,0.812,3.31,0.355,4.971,0.455c4.286,0.257,8.559-0.007,12.835,0.054c1.139,0.016,2.628-0.976,3.49,0.688
		c-2.75,5.969-5.688,11.85-9.208,17.4c-5.634,8.883-12.456,16.791-20.319,23.773c-16.656,14.792-35.923,24.259-57.897,28.097
		C301.704,349.046,297.646,349.554,293.604,350.151z"/>
	<path fill="#4ED7DD" d="M275.714,115.298c6.422,0,12.844,0,19.266,0c0.378,0.701,1.072,0.449,1.635,0.506
		c17.1,1.725,33.113,6.821,47.945,15.518c6.918,4.057,13.489,8.615,19.26,14.239c-3.629,0.691-7.301,0.391-10.956,0.495
		c-1.06,0.03-2.045-0.326-3.162-0.136c-3.523,0.6-7.083,0.538-10.508-0.576c-1.113-0.362-1.907-0.461-2.954,0.177
		c-1.639,0.998-3.406,1.629-5.296,0.38c-0.572-0.377-1.458-0.561-1.927,0.027c-1.194,1.496-2.489,0.62-3.739,0.294
		c-0.729-0.191-1.382-0.652-2.187-0.298c-2.403,1.054-4.809,0.464-7.193-0.06c-0.909-0.2-1.808-0.398-2.717-0.23
		c-2.949,0.544-5.852,1.713-8.868,0.054c-0.614-0.338-1.637,0.021-2.464,0.124c-2.508,0.314-5.034,0.512-7.498-0.118
		c-1.22-0.313-2.341-0.476-3.57-0.15c-2.096,0.553-4.204,0.804-6.276-0.161c-0.604-0.282-1.225-0.235-1.698,0.258
		c-0.823,0.857-1.692,0.889-2.683,0.324c-0.834-0.477-1.808-0.55-2.683-0.35c-3.686,0.844-7.413-0.011-11.116,0.372
		c-2.007,0.208-4.085,0.169-6.088,0.245c-2.255,0.085-4.25-1.041-6.459-0.666c-5.909,1.005-11.874,0.244-17.808,0.493
		c-1.22,0.051-2.373-0.388-3.624-0.145c-3.296,0.64-6.638,0.497-9.855-0.348c-1.541-0.405-2.757-0.745-4.24,0.209
		c-1.32,0.85-2.864,1.331-4.453,0.228c-0.602-0.417-1.537-0.717-2.159-0.123c-1.81,1.729-3.121,0.644-4.453-0.625
		c0.193-0.234,0.358-0.5,0.583-0.696c16.561-14.397,35.588-23.632,57.225-27.498C268.563,116.422,272.233,116.43,275.714,115.298z"
		/>
	<path fill="#36CDD8" d="M397.15,196.955c2.736,8.026,4.232,16.31,5.146,24.716c0.069,0.639-0.232,1.396,0.478,1.879
		c0,6.422,0,12.843,0,19.265c-1.151,2.635-0.682,5.561-1.48,8.26c-4.968-1.141-9.995,0.076-15.002-0.387
		c-3.827-0.354-7.736,0.172-11.563-0.181c-2.351-0.216-4.523-0.011-6.737,0.56c-0.033-1.902,0.01-3.807-0.109-5.704
		c-0.53-8.458-3.413-15.977-9.08-22.355c-0.093-0.823-0.31-1.654-0.261-2.468c0.511-8.332-0.963-16.148-5.854-23.105
		c3.591-1.222,7.332-0.213,11.005-0.53c3.595-0.311,7.579,0.584,11.163,0.069c3.815-0.548,7.51,0.843,11.079,0.027
		C389.761,196.126,393.435,198.089,397.15,196.955z"/>
	<path fill="#36CDD8" d="M167.92,222.633c1.167-2.599,0.849-5.446,1.357-8.157c0.526-2.807,0.838-5.656,1.839-8.357
		c8.036,0,16.078,0.191,24.105-0.068c4.848-0.157,9.794,1.593,14.559-0.599c0.179-0.083,0.543-0.078,0.645,0.039
		c1.181,1.359,2.681,0.542,4.044,0.628c0.172,3.957,1.163,7.736,2.493,11.441c-0.934,0.282-1.434,1.095-2.059,1.734
		c-5.625,5.768-9.56,12.498-11.498,20.352c-3.179-0.203-6.441-0.621-9.51-0.604c-3.329,0.019-6.743,0.096-10.119,0.183
		c-0.218,0.005-0.464,0.092-0.643,0.218c-0.962,0.68-1.951,0.524-3.058,0.365c-4.055-0.582-8.142-1.446-12.158,0.255
		C167.92,234.253,167.92,228.444,167.92,222.633z"/>
	<path fill="#2FCAD7" d="M167.92,240.064c4.016-1.702,8.103-0.836,12.158-0.255c1.106,0.159,2.095,0.314,3.058-0.365
		c0.179-0.126,0.425-0.213,0.643-0.219c3.375-0.087,6.79-0.164,10.119-0.183c3.069-0.017,6.331,0.401,9.509,0.604
		c-1.192,11.3-1.673,22.509,4.16,32.921c-3.126,0.461-6.2,0.164-9.342-0.145c-2.714-0.268-5.554,0.126-8.342,0.148
		c-1.68,0.013-3.354,0.279-4.813-0.867c-0.227-0.178-0.649-0.404-0.818-0.311c-2.515,1.387-5.258,0.808-7.912,1.01
		c-0.388,0.029-0.744,0.483-1.114,0.741c-2.699-6.314-4.137-12.976-5.493-19.67c-0.747-3.687-0.671-7.5-1.813-11.117
		C167.92,241.593,167.92,240.829,167.92,240.064z"/>
	<path fill="#606265" d="M207.566,272.567c-5.833-10.412-5.353-21.621-4.16-32.921c1.938-7.854,5.872-14.583,11.498-20.352
		c0.625-0.64,1.125-1.453,2.058-1.734c0.933,0.749,1.387,1.79,0.861,2.827c-1.483,2.927-2.214,6.094-3.193,9.182
		c-0.707,1.17-1.453,2.32-2.116,3.516c-3.678,6.644-3.784,13.833-3.172,21.127c-0.064,0.601-0.207,1.204-0.182,1.8
		c0.325,7.679,3.583,14.13,8.515,19.805c8.056,9.27,18.472,14.89,29.875,18.848c15.829,5.495,32.142,6.976,48.777,5.574
		c14.236-1.199,27.827-4.673,40.41-11.583c8.636-4.742,16.134-10.805,21-19.58c2.622-4.729,4.301-9.769,3.616-15.321
		c0.225-3.175,0.46-6.36,0.133-9.532c-0.445-4.307-1.452-8.456-4.103-12.025c0.863-3.004,0.988-6.12,1.418-9.19
		c5.667,6.379,8.549,13.897,9.08,22.355c0.118,1.896,0.077,3.802,0.109,5.704c0.471,10.05-2.515,19.007-8.539,27.002
		c-13.465,16.001-31.55,23.354-51.43,26.967c-20.148,3.663-40.152,2.636-59.755-3.529c-12.913-4.061-24.686-10.155-34.117-20.166
		C211.625,278.661,209.577,275.631,207.566,272.567z"/>
	<path fill="#2FCAD7" d="M359.452,278.07c6.023-7.996,9.01-16.953,8.539-27.002c2.214-0.571,4.387-0.775,6.737-0.56
		c3.827,0.353,7.736-0.173,11.563,0.181c5.007,0.462,10.033-0.755,15.002,0.387c-1.493,9.688-4.036,19.069-8.142,27.997
		c-0.862-1.664-2.351-0.672-3.491-0.688c-4.276-0.061-8.549,0.203-12.834-0.054c-1.662-0.101-3.207,0.357-4.971-0.456
		c-1.004-0.462-2.788,0.705-4.193,1.213c-0.505,0.183-1.068,0.596-1.493,0.249C364.141,277.68,361.689,278.477,359.452,278.07z"/>
	<path fill="#47D4DB" d="M185.259,171.531c3.508-6.266,7.937-11.854,12.684-17.202c2.871-3.236,5.873-6.349,9.248-9.074
		c1.331,1.269,2.642,2.354,4.451,0.625c0.622-0.594,1.557-0.294,2.158,0.123c1.589,1.103,3.133,0.622,4.453-0.228
		c1.483-0.954,2.699-0.614,4.24-0.209c3.217,0.845,6.558,0.988,9.855,0.348c1.251-0.243,2.403,0.196,3.624,0.145
		c5.934-0.25,11.898,0.512,17.808-0.493c2.208-0.375,4.204,0.75,6.458,0.666c2.003-0.076,4.082-0.038,6.088-0.245
		c3.703-0.383,7.431,0.472,11.117-0.372c0.875-0.201,1.848-0.127,2.683,0.35c0.991,0.565,1.859,0.534,2.683-0.324
		c0.473-0.493,1.093-0.54,1.698-0.258c2.072,0.965,4.181,0.714,6.277,0.161c1.229-0.325,2.351-0.163,3.57,0.15
		c2.464,0.63,4.989,0.433,7.498,0.118c0.826-0.103,1.849-0.462,2.464-0.124c3.016,1.659,5.918,0.491,8.868-0.054
		c0.91-0.168,1.809,0.03,2.716,0.23c2.385,0.524,4.791,1.114,7.193,0.06c0.806-0.354,1.458,0.106,2.188,0.298
		c1.249,0.326,2.544,1.202,3.738-0.294c0.47-0.588,1.355-0.404,1.927-0.027c1.891,1.25,3.658,0.619,5.296-0.38
		c1.048-0.638,1.841-0.539,2.955-0.177c3.424,1.114,6.984,1.175,10.507,0.576c1.116-0.19,2.103,0.167,3.162,0.136
		c3.656-0.104,7.327,0.197,10.957-0.495c6.77,5.739,12.412,12.46,17.499,19.712c2.49,3.55,4.995,7.063,6.848,10.998
		c-2.545,0.99-5.072,2.237-7.75,0.326c-0.547-0.391-1.019-0.023-1.422,0.339c-1.131,1.017-2.374,0.906-3.623,0.328
		c-0.942-0.435-1.847-0.505-2.879-0.298c-1.963,0.394-3.971,1.829-5.939-0.048c-0.114-0.109-0.473-0.074-0.658,0.017
		c-3.008,1.473-6.045,1.014-9.243,0.641c-2.208-0.258-4.583-0.63-6.709-0.438c-2.62,0.235-5.222-0.431-7.919,0.367
		c-2.112,0.625-4.726,0.818-6.92-0.663c-0.27-0.183-0.745-0.061-1.125-0.081c-3.89-4.35-8.295-8.069-13.367-10.988
		c-12.097-6.961-25.324-9.723-39.075-10.526c-4.73-0.276-9.453,0.052-14.148,0.521c-4,0.4-8.068,0.778-11.92,1.84
		c-10.895,3.006-21.281,7.167-29.748,15.042c-3.282-0.93-6.614-0.227-9.918-0.344c-3.339-0.119-6.667,0.179-10.037-0.201
		c-1.998-0.225-4.272-0.818-6.387,0.263c-1.103,0.563-2.391,0.385-3.571-0.012c-1.029-0.347-2.032-0.128-3.057-0.124
		C190.26,172.243,187.545,173.746,185.259,171.531z"/>
	<path fill="#41D1DA" d="M333.979,176.76c0.381,0.02,0.856-0.102,1.126,0.081c2.194,1.481,4.808,1.288,6.919,0.663
		c2.698-0.798,5.299-0.132,7.919-0.367c2.126-0.191,4.501,0.18,6.709,0.439c3.198,0.374,6.235,0.832,9.243-0.641
		c0.186-0.091,0.543-0.126,0.659-0.017c1.967,1.876,3.975,0.441,5.939,0.048c1.032-0.208,1.936-0.138,2.878,0.297
		c1.25,0.578,2.492,0.689,3.623-0.328c0.403-0.363,0.875-0.73,1.422-0.339c2.678,1.911,5.206,0.664,7.75-0.326
		c3.883,6.509,6.766,13.454,8.982,20.685c-3.714,1.134-7.39-0.829-11.216,0.046c-3.568,0.817-7.262-0.574-11.078-0.026
		c-3.584,0.515-7.568-0.38-11.164-0.069c-3.672,0.317-7.414-0.692-11.004,0.529c-3.704-4.593-7.941-8.594-12.962-11.735
		c-0.363-0.228-0.73-0.591-0.892-0.977C337.62,181.817,335.74,179.326,333.979,176.76z"/>
	<path fill="#41D1DA" d="M185.259,171.531c2.287,2.215,5.001,0.712,7.491,0.7c1.026-0.005,2.028-0.223,3.057,0.124
		c1.181,0.397,2.469,0.575,3.571,0.012c2.115-1.081,4.389-0.488,6.387-0.263c3.371,0.38,6.699,0.083,10.037,0.201
		c3.304,0.117,6.636-0.586,9.918,0.344c-0.505,0.561-0.993,1.139-1.52,1.68c-6.386,6.563-9.98,14.248-9.654,23.575
		c0.096,2.734-0.046,5.477-0.078,8.215c-1.363-0.086-2.863,0.731-4.044-0.628c-0.102-0.117-0.467-0.122-0.645-0.039
		c-4.764,2.192-9.71,0.441-14.559,0.599c-8.027,0.259-16.07,0.068-24.105,0.068c1.355-7.843,4.208-15.194,7.506-22.377
		C180.555,179.531,182.553,175.333,185.259,171.531z"/>
	<path fill="#643203" d="M214.469,206.119c0.032-2.738,0.174-5.481,0.078-8.215c-0.327-9.327,3.268-17.013,9.653-23.575
		c0.527-0.541,1.015-1.12,1.521-1.68c8.467-7.875,18.854-12.035,29.748-15.042c3.852-1.063,7.92-1.439,11.92-1.84
		c4.695-0.47,9.417-0.797,14.148-0.521c13.752,0.803,26.978,3.564,39.075,10.526c5.072,2.918,9.477,6.637,13.367,10.988
		c1.762,2.565,3.642,5.057,4.855,7.962c0.162,0.386,0.529,0.749,0.892,0.978c5.021,3.141,9.259,7.142,12.962,11.735
		c4.891,6.957,6.365,14.774,5.854,23.105c-0.05,0.814,0.167,1.645,0.26,2.468c-0.43,3.07-0.557,6.187-1.418,9.19
		c-2.94,8.976-8.988,15.445-16.632,20.629c-0.739,0.501-1.553,0.856-1.996,1.784c-5.153,10.783-14.06,17.481-24.667,22.118
		c-17.854,7.804-36.452,9.05-55.41,5.372c-11.827-2.294-22.821-6.714-31.985-14.823c-7.852-6.947-12.6-15.402-12.146-26.263
		c0.16-3.81,0.063-7.631,0.082-11.448c0.979-3.088,1.709-6.255,3.193-9.182c0.526-1.037,0.072-2.078-0.861-2.827
		C215.632,213.855,214.642,210.076,214.469,206.119z M279.068,188.25c0.996-5.62-0.548-9.052-5.687-11.632
		c-7.193-3.61-14.583-3.613-21.839-0.23c-5.251,2.448-7.072,6.104-6.209,11.395c-1.019,4.01,1.007,6.766,3.936,8.965
		c7.177,5.391,19.839,5.144,26.768-0.537C278.484,194.205,280.138,191.693,279.068,188.25z M220.774,237.836
		c-0.951,10.128,2.597,18.404,10.274,24.986c4.208,3.607,8.915,6.391,14.007,8.548c14.219,6.021,29.054,7.462,44.245,5.675
		c10.72-1.261,20.905-4.335,30.09-10.208c2.992-1.914,5.808-4.063,8.022-6.99c-7.849,2.761-15.925,4.208-24.106,5.174
		c-5.415,0.209-10.817,0.353-16.241-0.117c-11.311-0.981-22.139-3.616-32.225-8.937c-1.317-0.694-2.358-0.848-3.816-0.212
		c-7.325,3.198-15.086-1.848-15.238-9.805c-0.038-1.987,0.072-3.979-0.031-5.962c-0.112-2.13-0.942-4.116-2.662-5.334
		c-3.38-2.394-6.662-4.875-9.467-7.931c-0.977-1.064-1.398-0.771-1.773,0.465C220.793,230.672,220.549,234.228,220.774,237.836z
		 M269.252,246.137c-3.244-0.481-6.508-0.864-9.726-1.484c-1.676-0.323-2.448-0.084-2.144,1.781c0.072,0.44,0.078,0.971-0.104,1.358
		c-0.917,1.954,0.262,2.612,1.775,3.349c8.827,4.303,18.168,6.651,27.914,7.437c16.147,1.299,31.75-0.711,46.174-8.509
		c12.416-6.711,20.645-16.193,19.084-31.488c0.851-9.81-3.266-17.364-10.913-23.924c0,3.113-0.096,5.751,0.016,8.381
		c0.482,11.288-4.425,20.062-12.749,27.159c-9.942,8.479-21.783,12.703-34.457,14.916
		C285.882,246.549,277.583,246.788,269.252,246.137z M220.772,200.22c-0.008,1.753-0.089,3.511-0.012,5.261
		c0.463,10.508,6.554,17.397,14.911,23.303c0.28-3.23-0.301-6.162,0.937-8.869c2.541-2.767,2.567-3.039,0.033-5.363
		c-4.308-3.951-7.336-8.565-7.742-14.578c-0.554-8.223,3.546-14.097,9.588-18.993c1.053-0.854,2.27-1.474,3.01-2.742
		c1.659-2.839,4.067-4.979,6.99-6.428c9.072-4.492,18.21-4.509,27.328-0.113c1.043,0.503,2.071,0.865,3.215,1.079
		c7.68,1.436,14.846,4.079,20.992,9.092c7.89,6.436,10.601,15.69,6.921,24.314c-2.785,6.527-8.028,10.651-14.192,13.694
		c-9.137,4.511-18.853,5.853-28.944,5.097c-4.146-0.312-4.193-0.196-5.649,3.865c-0.794,0.468-0.765,1.241-0.761,2.017
		c0.008,1.756,0.113,3.521-0.031,5.265c-0.126,1.526,0.562,1.904,1.904,2.172c5.479,1.094,10.994,1.749,16.58,1.841
		c14.269,0.236,27.999-2.098,40.583-9.139c11.979-6.702,20.092-15.909,18.485-30.843c0.675-6.639-0.847-12.69-4.884-18.047
		c-5.625-7.46-13.283-12.104-21.839-15.323c-14.712-5.536-29.921-6.539-45.343-4.078c-10.516,1.677-20.437,5.129-29.104,11.554
		C225.052,180.705,219.833,188.935,220.772,200.22z M239.309,187.966c-4.121,3.412-5.825,9.196-4.549,13.924
		c1.346,4.986,4.814,8.202,8.773,11.055c2.767,1.992,2.675,1.9,0.955,4.997c-1.17,2.105-3.102,3.957-3.137,6.523
		c-0.099,7.181-0.099,14.366-0.01,21.547c0.04,3.25,2.254,5.151,5.513,5.073c3.029-0.072,4.997-2.131,5.012-5.336
		c0.025-5.272,0.004-10.544,0.004-15.816c0-0.916,0.03-1.785,0.545-2.638c1.46-2.416,2.854-4.873,4.213-7.347
		c0.496-0.902,0.967-1.301,2.14-1.12c6.188,0.961,12.384,1.178,18.611,0.154c8.753-1.439,16.648-4.554,22.438-11.583
		c3.067-3.724,4.246-7.994,2.588-12.815c-1.203-3.504-3.282-6.257-6.113-8.621c-3.227-2.696-6.894-4.466-10.786-5.875
		c-0.875-0.316-1.856-0.538-1.228,1.001c0.903,2.213,0.429,4.53,0.616,6.797c0.602,7.279-3.379,11.819-9.226,14.998
		c-7.055,3.834-14.59,4.187-22.205,1.963c-5.607-1.638-10.274-4.627-12.852-10.195C239.668,192.613,239.632,190.41,239.309,187.966z
		"/>
	<path fill="#F8F6F7" d="M214.63,229.569c-0.02,3.816,0.077,7.638-0.082,11.448c-0.454,10.86,4.294,19.315,12.146,26.263
		c9.164,8.109,20.158,12.529,31.985,14.823c18.958,3.678,37.556,2.432,55.41-5.372c10.608-4.637,19.514-11.335,24.667-22.118
		c0.443-0.928,1.257-1.283,1.996-1.784c7.644-5.185,13.691-11.654,16.632-20.629c2.651,3.57,3.658,7.718,4.103,12.025
		c0.327,3.171,0.092,6.356-0.133,9.532c-0.757,0.212-0.702,0.906-0.882,1.469c-1.775,5.553-4.734,10.375-8.759,14.602
		c-8.062,8.467-18.007,13.841-28.918,17.516c-18.595,6.264-37.659,7.489-56.97,4.418c-13.871-2.205-27.021-6.551-38.598-14.795
		c-7.746-5.515-14.029-12.254-16.968-21.585c-0.157-0.499-0.229-1.08-0.917-1.169c-0.612-7.293-0.506-14.483,3.172-21.127
		C213.177,231.889,213.923,230.74,214.63,229.569z"/>
	<path fill="#BDBDBD" d="M209.342,254.212c0.688,0.089,0.76,0.671,0.917,1.169c2.938,9.331,9.222,16.07,16.967,21.585
		c11.576,8.244,24.727,12.59,38.598,14.795c19.312,3.071,38.375,1.846,56.971-4.418c10.911-3.675,20.856-9.049,28.917-17.516
		c4.025-4.228,6.983-9.049,8.759-14.602c0.18-0.563,0.125-1.257,0.883-1.47c0.684,5.553-0.995,10.592-3.617,15.321
		c-4.867,8.775-12.363,14.838-21,19.58c-12.583,6.909-26.173,10.383-40.41,11.582c-16.635,1.401-32.948-0.079-48.777-5.574
		c-11.403-3.958-21.819-9.579-29.875-18.848c-4.932-5.675-8.19-12.127-8.515-19.806
		C209.135,255.416,209.278,254.812,209.342,254.212z"/>
	<path fill="#CF874E" d="M258.159,228.84c1.456-4.061,1.504-4.176,5.649-3.865c10.091,0.757,19.808-0.585,28.944-5.096
		c6.165-3.043,11.408-7.167,14.192-13.694c3.68-8.625,0.969-17.879-6.92-24.315c-6.146-5.013-13.312-7.656-20.993-9.092
		c-1.145-0.214-2.172-0.576-3.215-1.079c-9.117-4.396-18.255-4.38-27.327,0.113c-2.923,1.449-5.331,3.589-6.991,6.428
		c-0.741,1.268-1.957,1.888-3.01,2.742c-6.042,4.896-10.142,10.771-9.588,18.993c0.406,6.013,3.433,10.627,7.742,14.578
		c2.534,2.324,2.507,2.597-0.033,5.363c-0.481,0.108-0.897-0.057-1.281-0.321c-5.325-3.674-9.848-8.07-12.506-14.099
		c-0.76-1.724-1.37-3.514-2.049-5.274c-0.94-11.285,4.28-19.516,12.977-25.962c8.667-6.425,18.588-9.877,29.104-11.554
		c15.422-2.46,30.631-1.458,45.343,4.079c8.556,3.219,16.214,7.863,21.838,15.323c4.038,5.357,5.559,11.409,4.884,18.048
		c-1.188,4.038-2.737,7.872-5.427,11.213c-5.636,7-13.016,11.433-21.262,14.551c-12.858,4.862-26.185,6.292-39.812,4.878
		C264.964,230.438,261.439,230.214,258.159,228.84z"/>
	<path fill="#7F3A01" d="M239.309,187.966c0.323,2.443,0.36,4.647,1.303,6.687c2.578,5.568,7.245,8.557,12.852,10.195
		c7.615,2.225,15.15,1.872,22.205-1.963c5.847-3.179,9.828-7.719,9.226-14.998c-0.187-2.267,0.288-4.584-0.616-6.797
		c-0.628-1.539,0.353-1.317,1.229-1.001c3.891,1.409,7.558,3.179,10.785,5.875c2.832,2.364,4.911,5.117,6.113,8.621
		c1.657,4.822,0.479,9.091-2.588,12.815c-5.791,7.029-13.685,10.145-22.438,11.583c-6.227,1.023-12.423,0.806-18.611-0.154
		c-1.173-0.182-1.645,0.217-2.14,1.12c-1.36,2.474-2.753,4.931-4.213,7.347c-0.515,0.853-0.545,1.723-0.545,2.638
		c0,5.272,0.021,10.544-0.004,15.816c-0.016,3.205-1.983,5.264-5.012,5.336c-3.258,0.078-5.473-1.823-5.513-5.073
		c-0.088-7.181-0.088-14.366,0.01-21.547c0.036-2.566,1.967-4.417,3.137-6.523c1.721-3.097,1.812-3.005-0.955-4.998
		c-3.959-2.853-7.427-6.069-8.773-11.055C233.484,197.162,235.188,191.377,239.309,187.966z"/>
	<path fill="#CF874E" d="M269.252,246.137c8.331,0.651,16.63,0.412,24.87-1.026c12.673-2.212,24.514-6.437,34.457-14.915
		c8.325-7.097,13.231-15.871,12.749-27.159c-0.112-2.63-0.016-5.268-0.016-8.381c7.647,6.56,11.764,14.114,10.913,23.924
		c-1.501,5.542-4.039,10.448-8.183,14.559c-6.635,6.583-14.694,10.589-23.475,13.25c-11.291,3.423-22.864,4.476-34.599,3.238
		C280.292,249.029,274.643,248.166,269.252,246.137z"/>
	<path fill="#FBD98E" d="M303.306,265.02c8.18-0.966,16.257-2.412,24.105-5.173c-2.213,2.927-5.03,5.076-8.021,6.99
		c-9.185,5.873-19.37,8.947-30.091,10.208c-15.19,1.787-30.025,0.347-44.244-5.675c-5.092-2.157-9.799-4.94-14.007-8.547
		c-7.677-6.582-11.225-14.858-10.274-24.986c1.437,3.6,2.645,7.299,5.058,10.437c6.195,8.056,14.612,12.837,23.994,16.052
		c13.52,4.633,27.421,5.57,41.522,3.557C295.406,267.305,299.474,266.614,303.306,265.02z"/>
	<path fill="#FBD98E" d="M269.252,246.137c5.391,2.029,11.041,2.892,16.716,3.49c11.735,1.238,23.307,0.186,34.599-3.238
		c8.781-2.662,16.84-6.667,23.475-13.25c4.144-4.111,6.682-9.017,8.183-14.559c1.561,15.295-6.669,24.777-19.084,31.488
		c-14.423,7.797-30.027,9.808-46.174,8.509c-9.747-0.785-19.087-3.133-27.914-7.436c-1.513-0.737-2.692-1.395-1.775-3.349
		c0.182-0.387,0.176-0.918,0.104-1.358c-0.305-1.865,0.468-2.103,2.144-1.781C262.744,245.273,266.007,245.656,269.252,246.137z"/>
	<path fill="#FBD98E" d="M258.159,228.84c3.28,1.374,6.805,1.598,10.258,1.957c13.626,1.413,26.953-0.016,39.812-4.878
		c8.246-3.118,15.625-7.551,21.262-14.551c2.69-3.341,4.239-7.176,5.427-11.213c1.607,14.934-6.506,24.141-18.485,30.843
		c-12.583,7.041-26.314,9.375-40.583,9.139c-5.586-0.092-11.101-0.748-16.58-1.841c-1.342-0.268-2.031-0.646-1.904-2.172
		c0.145-1.744,0.04-3.509,0.031-5.265C257.394,230.082,257.365,229.308,258.159,228.84z"/>
	<path fill="#CF874E" d="M303.306,265.02c-3.832,1.594-7.9,2.285-11.959,2.863c-14.101,2.012-28.002,1.076-41.522-3.557
		c-9.381-3.215-17.798-7.996-23.993-16.052c-2.413-3.138-3.621-6.837-5.058-10.437c-0.224-3.608,0.02-7.165,1.078-10.649
		c0.375-1.236,0.796-1.529,1.773-0.465c2.806,3.057,6.087,5.537,9.467,7.931c1.72,1.218,2.55,3.204,2.662,5.334
		c0.104,1.982-0.006,3.975,0.031,5.962c0.151,7.957,7.913,13.003,15.238,9.805c1.458-0.635,2.499-0.481,3.817,0.212
		c10.085,5.32,20.913,7.955,32.224,8.937C292.488,265.373,297.891,265.23,303.306,265.02z"/>
	<path fill="#EDB70B" d="M245.333,187.783c-0.863-5.292,0.958-8.947,6.209-11.395c7.256-3.383,14.646-3.379,21.839,0.23
		c5.138,2.579,6.683,6.012,5.687,11.632c-1.285,0.865-1.856,2.342-3.049,3.35C268.636,197.838,251.154,197.916,245.333,187.783z
		 M262.464,179.896c-2.77,0.97-5.186,2.373-7.15,4.405c-0.639,0.661-0.151,1.579,0.679,2.099c1.545,0.968,3.052,2.002,4.637,2.899
		c1.13,0.641,2.369,0.552,3.485-0.105c1.44-0.847,2.838-1.764,4.244-2.668c0.88-0.566,1.42-1.531,0.716-2.304
		C267.271,182.24,264.869,181.077,262.464,179.896z"/>
	<path fill="#9D7100" d="M245.333,187.783c5.821,10.132,23.303,10.055,30.685,3.817c1.193-1.008,1.764-2.485,3.049-3.35
		c1.07,3.444-0.583,5.955-3.031,7.961c-6.929,5.681-19.591,5.928-26.768,0.537C246.34,194.549,244.314,191.792,245.333,187.783z"/>
	<path fill="#FBD98E" d="M220.772,200.22c0.679,1.76,1.289,3.55,2.049,5.274c2.658,6.029,7.181,10.425,12.507,14.099
		c0.384,0.265,0.8,0.43,1.281,0.322c-1.239,2.706-0.658,5.639-0.938,8.869c-8.357-5.906-14.448-12.794-14.911-23.303
		C220.684,203.731,220.764,201.974,220.772,200.22z"/>
	<path fill="#9D7100" d="M262.464,179.896c2.405,1.181,4.807,2.343,6.611,4.326c0.704,0.773,0.164,1.737-0.716,2.304
		c-1.406,0.904-2.804,1.82-4.244,2.668c-1.117,0.658-2.355,0.746-3.485,0.105c-1.585-0.897-3.092-1.931-4.637-2.899
		c-0.83-0.52-1.318-1.438-0.679-2.099C257.278,182.27,259.694,180.867,262.464,179.896z"/>
</g>
<g>
	<path fill="#AA00FF" d="M459.919,548.544c-13.965-6.307-27.391-12.478-39.998-18.323
		c-131.14-63.843-212.686-141.351-244.093-170.34l0.75,1.033C109.949,298.6,49.942,232.778,54.161,197.651
		c8.389-69.923,118.871-46.151,118.871-46.151c-79.473-45.415-350.06-56.66,7.226,243.339
		C283.361,487.774,434.919,566.9,565.874,620.318c344.189,145.586,230.587-73.001,160.278-123.477c0,0,67.567,90.584,7.477,127.302
		c-36.011,21.993-149.717-20.921-247.712-64.018"/>
	<path fill="#AA00FF" d="M192.611,327.713C140.519,405.33,31.784,629.788,468.116,499.732
		C468.116,499.732,65.521,616.154,192.611,327.713z"/>
	<path fill="#AA00FF" d="M679.838,318.476c52.099-77.617,160.827-302.079-275.502-172.015
		C404.336,146.46,806.932,30.034,679.838,318.476z"/>
	<path fill="#AA00FF" d="M336.97,107.503c50.111-78.923,211.887-268.745,268.302,183.048
		C605.271,290.551,549.938-124.873,336.97,107.503z"/>
	<path fill="#AA00FF" d="M544.316,560.645c-50.111,78.925-211.88,268.75-268.305-183.051
		C276.011,377.594,331.345,793.015,544.316,560.645z"/>
</g>
<g>
	<path fill="#F2B92C" d="M477,429.277c0.032-64.946,52.938-117.818,117.857-117.776c64.963,0.042,117.918,52.921,117.742,117.858
		c-0.18,65.296-52.551,117.631-117.824,117.742C529.824,547.212,476.969,494.202,477,429.277z M626.626,416.011
		c0.556-0.042,0.776-0.444,1.065-0.73c5.561-5.549,11.099-11.122,16.688-16.644c0.781-0.772,0.82-1.192,0.017-1.993
		c-16.238-16.192-32.451-32.41-48.646-48.646c-0.709-0.71-1.072-0.798-1.838-0.03c-16.19,16.24-32.403,32.458-48.65,48.642
		c-0.933,0.926-0.659,1.347,0.104,2.102c5.469,5.416,10.935,10.838,16.313,16.342c1.045,1.069,1.537,0.858,2.463-0.074
		c9.804-9.865,19.668-19.668,29.46-29.543c0.981-0.991,1.444-1.001,2.432-0.005c9.829,9.915,19.715,19.77,29.592,29.64
		C625.955,415.406,626.312,415.718,626.626,416.011z M562.774,442.611c-0.323,0.3-0.68,0.608-1.015,0.941
		c-5.45,5.431-10.873,10.89-16.367,16.274c-0.962,0.94-0.92,1.412,0.013,2.339c16.162,16.105,32.298,32.238,48.396,48.407
		c0.902,0.906,1.286,0.732,2.071-0.056c16.11-16.158,32.244-32.292,48.401-48.402c0.86-0.857,0.957-1.32,0.031-2.227
		c-5.528-5.427-11.01-10.901-16.447-16.421c-0.914-0.926-1.383-0.802-2.228,0.048c-9.876,9.934-19.808,19.813-29.673,29.759
		c-0.964,0.975-1.406,0.875-2.312-0.038c-9.836-9.9-19.717-19.755-29.591-29.615C563.688,443.254,563.398,442.774,562.774,442.611z
		 M613.632,429.316c-0.24-0.262-0.403-0.459-0.587-0.641c-5.853-5.857-11.716-11.704-17.552-17.58
		c-0.564-0.569-0.866-0.485-1.384,0.037c-5.801,5.834-11.62,11.65-17.451,17.455c-0.492,0.491-0.672,0.784-0.073,1.378
		c5.878,5.833,11.733,11.688,17.565,17.565c0.565,0.569,0.862,0.489,1.381-0.034c5.801-5.834,11.624-11.645,17.44-17.464
		C613.191,429.817,613.389,429.583,613.632,429.316z M549.683,429.313c-0.265-0.296-0.463-0.534-0.681-0.753
		c-5.701-5.703-11.414-11.396-17.091-17.123c-0.622-0.627-0.939-0.517-1.499,0.046c-5.682,5.721-11.383,11.426-17.109,17.103
		c-0.621,0.616-0.54,0.927,0.03,1.493c5.722,5.683,11.425,11.383,17.104,17.108c0.599,0.602,0.924,0.565,1.5-0.016
		c5.682-5.723,11.394-11.416,17.092-17.12C549.244,429.833,549.436,429.592,549.683,429.313z M658.469,447.847
		c0.275-0.256,0.512-0.46,0.73-0.68c5.702-5.701,11.396-11.414,17.123-17.092c0.604-0.597,0.582-0.908-0.008-1.493
		c-5.727-5.681-11.427-11.384-17.108-17.108c-0.576-0.579-0.893-0.624-1.496-0.016c-5.677,5.728-11.38,11.429-17.104,17.11
		c-0.596,0.591-0.597,0.924-0.003,1.514c5.724,5.681,11.418,11.393,17.122,17.094C657.94,447.394,658.181,447.588,658.469,447.847z"
		/>
	<path fill="#FEFEFD" d="M626.626,416.011c-0.314-0.293-0.671-0.605-1.002-0.939c-9.877-9.87-19.763-19.725-29.592-29.64
		c-0.987-0.997-1.45-0.986-2.432,0.005c-9.792,9.875-19.656,19.678-29.46,29.543c-0.926,0.932-1.418,1.143-2.463,0.074
		c-5.379-5.504-10.845-10.926-16.313-16.342c-0.763-0.755-1.036-1.175-0.104-2.102c16.247-16.184,32.46-32.402,48.65-48.642
		c0.766-0.768,1.129-0.68,1.838,0.03c16.195,16.236,32.408,32.454,48.646,48.646c0.804,0.801,0.765,1.221-0.017,1.993
		c-5.589,5.522-11.127,11.094-16.688,16.644C627.402,415.568,627.182,415.969,626.626,416.011z"/>
	<path fill="#FEFEFD" d="M562.774,442.611c0.624,0.163,0.913,0.643,1.281,1.009c9.874,9.86,19.755,19.714,29.591,29.615
		c0.905,0.913,1.347,1.013,2.312,0.038c9.865-9.946,19.797-19.826,29.673-29.759c0.845-0.85,1.313-0.975,2.228-0.048
		c5.435,5.52,10.918,10.994,16.447,16.421c0.926,0.908,0.829,1.37-0.031,2.227c-16.157,16.11-32.291,32.245-48.401,48.402
		c-0.785,0.788-1.169,0.961-2.071,0.056c-16.099-16.168-32.234-32.302-48.396-48.407c-0.933-0.927-0.975-1.399-0.015-2.339
		c5.496-5.384,10.919-10.843,16.369-16.274C562.095,443.219,562.451,442.911,562.774,442.611z"/>
	<path fill="#FEFEFD" d="M613.632,429.316c-0.243,0.268-0.443,0.501-0.66,0.717c-5.816,5.819-11.64,11.63-17.44,17.464
		c-0.519,0.522-0.815,0.603-1.381,0.034c-5.832-5.876-11.688-11.732-17.565-17.565c-0.599-0.594-0.419-0.887,0.073-1.378
		c5.831-5.805,11.65-11.621,17.451-17.455c0.518-0.522,0.819-0.606,1.384-0.037c5.834,5.876,11.699,11.723,17.552,17.58
		C613.229,428.856,613.392,429.054,613.632,429.316z"/>
	<path fill="#FEFEFD" d="M549.683,429.313c-0.247,0.279-0.438,0.52-0.653,0.737c-5.698,5.704-11.41,11.397-17.092,17.119
		c-0.576,0.582-0.901,0.62-1.5,0.017c-5.68-5.724-11.383-11.425-17.104-17.108c-0.572-0.565-0.651-0.877-0.03-1.492
		c5.727-5.677,11.428-11.381,17.109-17.103c0.56-0.563,0.877-0.673,1.499-0.046c5.677,5.728,11.39,11.419,17.091,17.123
		C549.22,428.778,549.418,429.017,549.683,429.313z"/>
	<path fill="#FEFEFD" d="M658.469,447.847c-0.288-0.259-0.528-0.454-0.744-0.67c-5.705-5.701-11.398-11.413-17.122-17.094
		c-0.594-0.59-0.594-0.923,0.003-1.514c5.725-5.681,11.428-11.383,17.104-17.11c0.604-0.608,0.92-0.563,1.496,0.016
		c5.682,5.724,11.382,11.427,17.108,17.108c0.59,0.585,0.609,0.896,0.008,1.493c-5.728,5.679-11.421,11.392-17.123,17.092
		C658.98,447.387,658.744,447.591,658.469,447.847z"/>
</g>
</svg>
