<?xml version="1.0" encoding="utf-8"?>
<!-- Generator: Adobe Illustrator 16.0.0, SVG Export Plug-In . SVG Version: 6.00 Build 0)  -->
<!DOCTYPE svg PUBLIC "-//W3C//DTD SVG 1.1//EN" "http://www.w3.org/Graphics/SVG/1.1/DTD/svg11.dtd">
<svg version="1.1" xmlns="http://www.w3.org/2000/svg" xmlns:xlink="http://www.w3.org/1999/xlink" x="0px" y="0px"
	 width="801.955px" height="669.576px" viewBox="0 0 801.955 669.576" enable-background="new 0 0 801.955 669.576"
	 xml:space="preserve">
<g id="Capa_1">
	<g>
		<path fill="#AA00FF" d="M459.919,548.544c-13.965-6.307-27.391-12.478-39.998-18.323
			c-131.14-63.843-212.686-141.351-244.093-170.34l0.75,1.033C109.949,298.6,49.942,232.778,54.161,197.651
			c8.389-69.923,118.871-46.151,118.871-46.151c-79.473-45.415-350.06-56.66,7.226,243.339
			C283.361,487.774,434.919,566.9,565.874,620.318c344.189,145.586,230.587-73.001,160.278-123.477c0,0,67.567,90.584,7.477,127.302
			c-36.011,21.993-149.717-20.921-247.712-64.018"/>
		<path fill="#AA00FF" d="M192.611,327.713C140.519,405.33,31.784,629.788,468.116,499.732
			C468.116,499.732,65.521,616.154,192.611,327.713z"/>
		<path fill="#AA00FF" d="M679.838,318.476c52.099-77.617,160.827-302.079-275.502-172.015
			C404.336,146.46,806.932,30.034,679.838,318.476z"/>
		<path fill="#AA00FF" d="M336.97,107.503c50.111-78.923,211.887-268.745,268.302,183.048
			C605.271,290.551,549.938-124.873,336.97,107.503z"/>
		<path fill="#AA00FF" d="M544.316,560.645c-50.111,78.925-211.88,268.75-268.305-183.051
			C276.011,377.594,331.345,793.015,544.316,560.645z"/>
	</g>
</g>
<g id="Capa_2">
	<g>
		<circle fill="#F0B90B" cx="595" cy="429.015" r="117.215"/>
		<path fill="#FFFFFF" d="M545.114,399.242l49.935-49.935l19.909,19.911l-49.933,49.933L545.114,399.242z M545.15,458.911
			l79.799-79.799l19.912,19.911l-79.801,79.798L545.15,458.911z M654.796,409.015l-79.8,79.799l19.908,19.908l79.803-79.799
			L654.796,409.015z M515.293,429.057l19.911-19.909l19.909,19.909l-19.909,19.911L515.293,429.057z"/>
	</g>
	<g>
		<path fill="#F4AB37" d="M281.613,116.442c3.278,0,6.556,0,9.835,0c0.077,0.167,0.233,0.11,0.357,0.117
			c2.787,0.138,5.567,0.361,8.338,0.681c6.873,0.796,13.623,2.189,20.236,4.208c19.567,5.973,36.479,16.304,50.656,31.055
			c11.728,12.203,20.357,26.331,25.983,42.292c2.725,7.731,4.585,15.667,5.644,23.793c0.437,3.367,0.7,6.75,0.869,10.141
			c0.028,1.015,0.058,2.03,0.087,3.045c0,1.17,0,2.342,0,3.512c-0.029,1.016-0.059,2.03-0.087,3.046
			c-0.159,2.94-0.369,5.877-0.713,8.802c-0.844,7.181-2.306,14.233-4.481,21.128c-7.124,22.563-19.834,41.355-38.182,56.294
			c-11.891,9.681-25.235,16.671-39.911,21.102c-8.789,2.654-17.772,4.236-26.94,4.764c-1.048,0.061-2.105-0.003-3.145,0.198
			c-2.418,0-4.839,0-7.259,0c-0.18-0.104-0.379-0.081-0.572-0.087c-5.86-0.181-11.67-0.844-17.427-1.931
			c-11.025-2.082-21.556-5.64-31.542-10.765c-18.524-9.506-33.542-22.945-44.906-40.392c-11.311-17.363-17.542-36.43-18.812-57.117
			c-0.039-0.626,0.045-1.272-0.198-1.879c0-3.239,0-6.478,0-9.718c0.173-0.103,0.107-0.277,0.114-0.422
			c0.351-7.776,1.451-15.446,3.342-22.997c4.139-16.528,11.49-31.478,22.116-44.8c10.177-12.758,22.494-22.95,36.932-30.552
			c14.981-7.889,30.939-12.319,47.846-13.322C280.399,116.6,281.027,116.694,281.613,116.442z M260.208,168.41
			c-9.152,0-18.305-0.001-27.458,0.001c-0.409,0-0.82,0.002-1.227,0.036c-0.447,0.038-0.716,0.283-0.729,0.755
			c-0.008,0.273-0.015,0.546-0.015,0.82c-0.001,6.479,0,12.957-0.001,19.436c0,6.595,0.002,13.191-0.002,19.787
			c-0.001,1.304-0.161,1.452-1.442,1.452c-5.21,0.001-10.419,0-15.63,0.002c-1.149,0-1.234,0.085-1.234,1.235
			c-0.001,4.099-0.001,8.196,0.001,12.294c0.001,0.292,0.027,0.584,0.051,0.875c0.031,0.388,0.255,0.603,0.633,0.645
			c0.251,0.027,0.506,0.032,0.76,0.032c5.229,0.002,10.458,0,15.689,0.006c1.06,0.001,1.173,0.124,1.173,1.179
			c0.002,4.372,0.001,8.743,0.001,13.113c0,1.761-0.025,1.784-1.803,1.784c-5.289,0.001-10.577,0.001-15.865,0
			c-0.332,0-0.651-0.074-0.649,0.468c0.018,4.488,0.004,8.977,0.021,13.465c0.004,1.008,0.195,1.151,1.239,1.151
			c5.23,0.001,10.459,0,15.69,0.001c1.326,0,1.367,0.042,1.367,1.389c0,13.134,0,26.268,0.002,39.4c0,0.944-0.118,0.855,0.831,0.855
			c14.362,0.002,28.725,0.008,43.088-0.004c3.629-0.003,7.259,0.065,10.888-0.044c6.99-0.209,13.861-1.167,20.573-3.191
			c7.794-2.353,15.066-5.749,21.563-10.711c9.215-7.041,16.17-15.8,20.296-26.709c0.278-0.739,0.938-1.152,1.74-1.149
			c4.644,0.007,9.288,0.02,13.932,0.023c1.304,0.002,1.642-0.329,1.646-1.618c0.008-2.322-0.034-4.645,0.015-6.967
			c0.04-1.864-0.129-3.736,0.2-5.593c0.111-0.627-0.111-0.823-0.771-0.823c-2.811-0.001-5.621,0.001-8.43-0.001
			c-0.996-0.001-1.992,0.019-2.986-0.02c-0.817-0.032-0.964-0.181-0.952-0.991c0.015-0.916,0.1-1.831,0.155-2.745
			c0.222-3.708,0.139-7.411-0.174-11.11c-0.086-1.032,0.128-1.238,1.173-1.245c0.117,0,0.235,0,0.352,0
			c3.337-0.001,6.673,0.005,10.01-0.009c1.036-0.005,1.402-0.362,1.403-1.365c0.009-4.117,0.009-8.235-0.006-12.353
			c-0.003-1.173-0.175-1.345-1.315-1.345c-4.585,0.002-9.171,0.015-13.757,0.032c-0.854,0.003-1.605-0.499-1.889-1.304
			c-0.934-2.655-2.119-5.2-3.495-7.65c-6.007-10.687-14.41-18.943-25.22-24.729c-10.446-5.59-21.633-8.38-33.449-8.54
			C277.538,168.314,268.872,168.41,260.208,168.41z"/>
		<path fill="#FDFDFC" d="M403.532,228.729c0.028-0.001,0.058,0,0.087,0c0,1.015,0,2.03,0,3.045
			C403.59,230.76,403.561,229.745,403.532,228.729z"/>
		<path fill="#FDFDFC" d="M403.619,238.331l-0.044,0.001h-0.043c0.028-1.016,0.058-2.03,0.087-3.046
			C403.619,236.301,403.619,237.316,403.619,238.331z"/>
		<path fill="#FDFDFC" d="M260.208,168.41c8.664,0,17.33-0.095,25.992,0.023c11.816,0.159,23.003,2.949,33.448,8.54
			c10.811,5.786,19.213,14.041,25.221,24.729c1.376,2.45,2.561,4.995,3.495,7.649c0.285,0.808,1.036,1.308,1.89,1.305
			c4.585-0.017,9.171-0.03,13.757-0.031c1.14,0,1.312,0.17,1.315,1.345c0.015,4.118,0.015,8.235,0.006,12.352
			c-0.001,1.003-0.368,1.361-1.403,1.366c-3.337,0.014-6.674,0.007-10.01,0.009c-0.117,0-0.236,0-0.353,0
			c-1.044,0.006-1.258,0.214-1.172,1.245c0.313,3.7,0.395,7.402,0.174,11.11c-0.056,0.916-0.141,1.829-0.155,2.744
			c-0.014,0.811,0.133,0.959,0.952,0.991c0.994,0.038,1.99,0.019,2.985,0.021c2.81,0.002,5.62,0,8.431,0.001
			c0.661,0,0.882,0.195,0.771,0.822c-0.329,1.857-0.16,3.729-0.2,5.594c-0.049,2.321-0.006,4.644-0.015,6.967
			c-0.005,1.289-0.342,1.62-1.646,1.618c-4.644-0.004-9.288-0.016-13.933-0.024c-0.801-0.001-1.461,0.411-1.741,1.149
			c-4.125,10.911-11.08,19.669-20.296,26.711c-6.495,4.962-13.768,8.357-21.562,10.71c-6.711,2.024-13.583,2.983-20.573,3.192
			c-3.63,0.108-7.259,0.041-10.888,0.043c-14.363,0.012-28.726,0.006-43.088,0.004c-0.949,0-0.831,0.089-0.831-0.856
			c-0.002-13.132-0.001-26.266-0.002-39.399c0-1.347-0.041-1.389-1.367-1.39c-5.23-0.001-10.459,0.001-15.689-0.001
			c-1.045,0-1.236-0.143-1.24-1.151c-0.017-4.488-0.004-8.976-0.021-13.465c-0.002-0.542,0.318-0.468,0.649-0.467
			c5.288,0,10.577,0,15.865,0c1.779,0,1.803-0.024,1.803-1.785c0-4.37,0.001-8.742,0-13.113c0-1.055-0.114-1.178-1.173-1.179
			c-5.23-0.006-10.459-0.004-15.689-0.006c-0.253,0-0.508-0.006-0.76-0.032c-0.378-0.041-0.603-0.256-0.634-0.645
			c-0.024-0.291-0.051-0.583-0.051-0.875c-0.002-4.099-0.002-8.196-0.001-12.294c0-1.15,0.085-1.234,1.235-1.235
			c5.21-0.003,10.42,0,15.629-0.001c1.281,0,1.44-0.149,1.441-1.453c0.005-6.597,0.003-13.192,0.003-19.788
			c0-6.479,0-12.958,0.001-19.436c0-0.273,0.008-0.546,0.016-0.819c0.013-0.472,0.281-0.718,0.729-0.756
			c0.407-0.034,0.818-0.036,1.228-0.036C241.903,168.409,251.055,168.41,260.208,168.41z M288.814,211.059
			c13.992,0,27.983,0,41.975,0c1.039,0,1.067-0.037,1.125-0.902c0.029-0.393-0.092-0.727-0.262-1.06
			c-2.845-5.624-6.643-10.514-11.487-14.542c-9.824-8.169-21.132-12.27-33.932-12.245c-12.978,0.025-25.954,0.006-38.931,0.006
			c-1.711,0-1.835,0.122-1.835,1.815c0,8.371,0,16.742,0,25.114c0,1.791,0.022,1.813,1.84,1.813
			C261.144,211.059,274.979,211.059,288.814,211.059z M287.321,257.027c-13.365,0-26.731,0-40.096,0.001
			c-1.65,0.001-1.757,0.105-1.757,1.751c-0.002,8.331-0.001,16.662,0.001,24.994c0,0.271,0.024,0.544,0.044,0.817
			c0.032,0.442,0.284,0.67,0.715,0.697c0.487,0.03,0.974,0.063,1.461,0.063c12.058,0.003,24.117,0.001,36.175,0.002
			c1.15,0,2.3,0.114,3.45-0.027c1.991-0.246,3.985-0.477,5.975-0.731c3.257-0.416,6.427-1.212,9.573-2.143s6.149-2.25,9.024-3.749
			c8.707-4.541,15.273-11.298,19.851-19.984c0.1-0.189,0.194-0.384,0.261-0.586c0.274-0.836,0.086-1.106-0.78-1.173
			c-1.29-0.097-2.573,0.064-3.859,0.065C314.013,257.031,300.667,257.027,287.321,257.027z M291.087,241.807
			c14.614,0,29.229,0,43.842,0c0.215,0,0.43,0.003,0.645-0.004c0.908-0.03,1.125-0.222,1.207-1.138
			c0.401-4.441,0.385-8.886,0.056-13.329c-0.107-1.445-0.348-1.642-1.812-1.642c-29.267,0-58.535,0-87.802,0
			c-0.137,0-0.273-0.002-0.41,0.003c-0.983,0.03-1.282,0.319-1.339,1.301c-0.009,0.156-0.007,0.312-0.007,0.468
			c0,4.176-0.001,8.352,0,12.527c0.001,1.799,0.018,1.813,1.836,1.813C261.898,241.807,276.492,241.807,291.087,241.807z"/>
		<path fill="#F4AB37" d="M288.814,211.059c-13.835,0-27.67,0-41.507,0c-1.818,0-1.84-0.023-1.84-1.813c0-8.372,0-16.743,0-25.114
			c0-1.693,0.125-1.814,1.835-1.814c12.977,0,25.953,0.019,38.931-0.006c12.8-0.026,24.108,4.076,33.932,12.245
			c4.844,4.027,8.641,8.917,11.487,14.542c0.17,0.333,0.291,0.667,0.262,1.06c-0.059,0.866-0.087,0.903-1.125,0.903
			C316.797,211.059,302.806,211.059,288.814,211.059z"/>
		<path fill="#F4AB37" d="M287.321,257.027c13.346,0,26.692,0.003,40.039-0.003c1.286-0.001,2.569-0.162,3.859-0.065
			c0.866,0.066,1.054,0.337,0.779,1.173c-0.066,0.202-0.161,0.397-0.26,0.586c-4.578,8.687-11.144,15.442-19.85,19.984
			c-2.875,1.499-5.879,2.818-9.024,3.749c-3.146,0.931-6.315,1.728-9.573,2.143c-1.991,0.254-3.984,0.486-5.977,0.731
			c-1.149,0.142-2.3,0.027-3.449,0.027c-12.058-0.001-24.116,0.001-36.174-0.002c-0.487,0-0.975-0.032-1.461-0.063
			c-0.431-0.027-0.684-0.255-0.716-0.697c-0.02-0.272-0.043-0.545-0.043-0.817c-0.002-8.332-0.003-16.664-0.001-24.994
			c0-1.646,0.107-1.751,1.757-1.751C260.59,257.027,273.956,257.027,287.321,257.027z"/>
		<path fill="#F4AB37" d="M291.087,241.807c-14.595,0-29.189,0-43.784,0c-1.818,0-1.835-0.015-1.836-1.814
			c-0.001-4.175,0-8.351,0-12.526c0-0.156-0.002-0.313,0.007-0.468c0.057-0.982,0.356-1.271,1.339-1.301
			c0.137-0.005,0.273-0.002,0.41-0.002c29.267,0,58.535,0,87.802,0c1.464,0,1.704,0.196,1.812,1.642
			c0.328,4.443,0.344,8.888-0.056,13.328c-0.082,0.917-0.298,1.109-1.207,1.139c-0.215,0.008-0.43,0.003-0.645,0.003
			C320.316,241.807,305.702,241.807,291.087,241.807z"/>
	</g>
</g>
</svg>
