<?xml version="1.0" encoding="utf-8"?>
<!-- Generator: Adobe Illustrator 16.0.0, SVG Export Plug-In . SVG Version: 6.00 Build 0)  -->
<!DOCTYPE svg PUBLIC "-//W3C//DTD SVG 1.1//EN" "http://www.w3.org/Graphics/SVG/1.1/DTD/svg11.dtd">
<svg version="1.1" id="Capa_1" xmlns="http://www.w3.org/2000/svg" xmlns:xlink="http://www.w3.org/1999/xlink" x="0px" y="0px"
	 width="146px" height="146px" viewBox="0 0 146 146" enable-background="new 0 0 146 146" xml:space="preserve">
<circle fill="#AA00FF" cx="73" cy="73" r="73"/>
<g>
	<g>
		<path fill="#FEE09B" d="M73.002,123.288c-27.731,0-50.291-22.559-50.291-50.289c0-27.729,22.56-50.287,50.291-50.287
			c27.729,0,50.287,22.559,50.287,50.287C123.289,100.729,100.728,123.288,73.002,123.288z"/>
		<path fill="#400066" d="M73.002,23.848c27.103,0,49.15,22.051,49.15,49.151c0,27.102-22.048,49.152-49.15,49.152
			c-27.104,0-49.155-22.051-49.155-49.152C23.847,45.896,45.897,23.848,73.002,23.848 M73.002,21.575
			c-28.402,0-51.427,23.025-51.427,51.424c0,28.399,23.024,51.426,51.427,51.426c28.398,0,51.423-23.026,51.423-51.426
			C124.425,44.599,101.398,21.575,73.002,21.575L73.002,21.575z"/>
	</g>
	<g>
		<path fill="#400066" d="M36.688,89.239c-4.545-5.019-6.795-10.479-6.795-16.46s2.25-11.436,6.795-16.46
			c4.784-4.545,10.289-6.795,16.46-6.795c5.982,0,11.439,2.25,16.461,6.795c2.729,2.775,4.593,5.883,5.694,9.378
			c-1.481,0.812-3.014,1.244-4.64,1.244c-2.629,0-4.927-0.954-6.894-2.825l-1.001-0.958c-2.776-2.63-5.982-3.97-9.619-4.018
			c-3.492,0-6.695,1.34-9.613,4.018c-2.635,2.923-3.975,6.127-3.975,9.618c0,3.495,1.338,6.702,3.975,9.617
			c2.918,2.678,6.121,4.022,9.613,4.022c3.637,0,6.846-1.345,9.619-4.022l1.001-0.959c1.629-1.578,3.066-2.438,4.309-2.58
			c1.246-0.145,2.058-0.24,2.489-0.24c1.674,0,3.254,0.43,4.735,1.242c-1.1,3.497-2.966,6.6-5.694,9.379
			c-5.021,4.544-10.476,6.794-16.461,6.794C46.978,96.034,41.473,93.783,36.688,89.239z"/>
		<path fill="#400066" d="M82.489,96.034c0-2.627,0.958-4.927,2.823-6.795c1.865-1.866,4.165-2.817,6.797-2.817h4.4
			c2.444,0,4.405-1.965,4.405-4.405c0-2.439-1.961-4.404-4.405-4.404c-1.526,0-3.014-0.237-4.4-0.72
			c-2.441-0.808-4.498-2.202-6.174-4.113c-2.296-2.631-3.446-5.694-3.446-9.235c0-3.876,1.341-7.181,4.069-9.904
			c2.724-2.731,6.076-4.117,9.951-4.117h14.068c0,2.39-0.763,4.496-2.344,6.267c-1.965,2.25-4.405,3.399-7.324,3.399h-4.405
			c-2.44,0-4.4,1.914-4.4,4.354c0,2.442,1.96,4.402,4.4,4.402c4.31,0,7.852,1.628,10.578,4.831c2.344,2.632,3.493,5.699,3.493,9.237
			c0,3.874-1.388,7.177-4.116,9.901c-2.728,2.729-6.076,4.117-9.955,4.117H82.489V96.034z"/>
	</g>
</g>
</svg>
